<svg width="80" height="80" viewBox="0 0 80 80" fill="none" xmlns="http://www.w3.org/2000/svg">
<rect width="80" height="80" rx="16" fill="#E2EEEC"/>
<path d="M49.3333 37L48.3333 36.25L47.3333 37C46.5817 37.5633 40 42.6667 40 48.3333C40 50.5435 40.878 52.6631 42.4408 54.2259C44.0036 55.7887 46.1232 56.6667 48.3333 56.6667C50.5435 56.6667 52.6631 55.7887 54.2259 54.2259C55.7887 52.6631 56.6667 50.5435 56.6667 48.3333C56.6667 42.6667 50.085 37.5633 49.3333 37ZM48.3333 53.3333C47.0073 53.3333 45.7355 52.8066 44.7978 51.8689C43.8601 50.9312 43.3333 49.6594 43.3333 48.3333C43.3333 45.4867 46.365 42.2167 48.3333 40.4867C50.3017 42.2167 53.3333 45.4867 53.3333 48.3333C53.3333 49.6594 52.8066 50.9312 51.8689 51.8689C50.9312 52.8066 49.6594 53.3333 48.3333 53.3333Z" fill="#1C3A27"/>
<path d="M32.5917 31.9468L31.6667 31.3335L30.7417 31.9502C30.5083 32.1035 25 35.8418 25 41.6668C25 43.4349 25.7024 45.1306 26.9526 46.3809C28.2029 47.6311 29.8986 48.3335 31.6667 48.3335C33.4348 48.3335 35.1305 47.6311 36.3807 46.3809C37.631 45.1306 38.3333 43.4349 38.3333 41.6668C38.3333 35.8418 32.8333 32.1035 32.5917 31.9468ZM31.6667 45.0002C30.7826 45.0002 29.9348 44.649 29.3096 44.0239C28.6845 43.3987 28.3333 42.5509 28.3333 41.6668C28.4382 40.4601 28.7879 39.2874 29.361 38.2203C29.9341 37.1532 30.7186 36.2141 31.6667 35.4602C32.6146 36.2142 33.399 37.1534 33.9721 38.2205C34.5451 39.2875 34.8949 40.4602 35 41.6668C35 42.5509 34.6488 43.3987 34.0237 44.0239C33.3986 44.649 32.5507 45.0002 31.6667 45.0002Z" fill="#1C3A27"/>
<path d="M48.3334 30.0002C48.3334 27.8736 45.6667 24.9702 44.5117 23.8219L43.3334 22.6436L42.155 23.8219C41 24.9702 38.3334 27.8736 38.3334 30.0002C38.3334 31.3263 38.8602 32.5981 39.7978 33.5358C40.7355 34.4734 42.0073 35.0002 43.3334 35.0002C44.6595 35.0002 45.9312 34.4734 46.8689 33.5358C47.8066 32.5981 48.3334 31.3263 48.3334 30.0002ZM41.6667 30.0286C42.0566 29.0776 42.622 28.2086 43.3334 27.4669C44.0407 28.208 44.6057 29.073 45 30.0186C45.0014 30.4606 44.827 30.885 44.5154 31.1985C44.2038 31.512 43.7804 31.6889 43.3384 31.6902C42.8963 31.6915 42.4719 31.5172 42.1584 31.2056C41.8449 30.894 41.668 30.4706 41.6667 30.0286Z" fill="black"/>
</svg>
