<svg width="80" height="80" viewBox="0 0 80 80" fill="none" xmlns="http://www.w3.org/2000/svg">
<rect width="80" height="80" rx="16" fill="#E2EEEC"/>
<path d="M35 31.6667H33.3333V25H30V31.6667H28.3333V25H25V36.6667C25 37.5507 25.3512 38.3986 25.9763 39.0237C26.6014 39.6488 27.4493 40 28.3333 40H30V55H33.3333V40H35C35.8841 40 36.7319 39.6488 37.357 39.0237C37.9821 38.3986 38.3333 37.5507 38.3333 36.6667V25H35V31.6667ZM28.3333 36.6667V35H35V36.6667H28.3333Z" fill="#1C3A27"/>
<path d="M50.9667 23.9818C50.2829 23.77 49.5489 23.7854 48.8747 24.0258C48.2004 24.2662 47.6222 24.7185 47.2267 25.3151L45.4133 28.0435C44.084 30.0402 43.2519 32.3261 42.9867 34.7101L41.8833 44.6351C41.832 45.1007 41.8794 45.5719 42.0225 46.0179C42.1655 46.4639 42.4009 46.8748 42.7134 47.2238C43.0258 47.5727 43.4083 47.8519 43.8359 48.0431C44.2635 48.2343 44.7266 48.3332 45.195 48.3335H50V55.0001H53.3333V27.1668C53.3354 26.4516 53.1061 25.7549 52.6795 25.1808C52.2529 24.6068 51.6521 24.1861 50.9667 23.9818ZM50 45.0001H45.195L46.2983 35.0751C46.5056 33.2215 47.1531 31.4444 48.1867 29.8918L50 27.1668V45.0001Z" fill="#1C3A27"/>
</svg>
