<svg width="80" height="80" viewBox="0 0 80 80" fill="none" xmlns="http://www.w3.org/2000/svg">
<rect width="80" height="80" rx="16" fill="#E2EEEC"/>
<path d="M51.4283 25.8083L48.5717 27.525L53.3333 35.4617V46.6667H51.6667V43.3333C51.6667 42.4493 51.3155 41.6014 50.6904 40.9763C50.0652 40.3512 49.2174 40 48.3333 40H46.6667V25H26.6667V51.6667H25V55H48.3333V51.6667H46.6667V43.3333H48.3333V46.6667C48.3333 47.5507 48.6845 48.3986 49.3096 49.0237C49.9348 49.6488 50.7826 50 51.6667 50H53.3333C54.2174 50 55.0652 49.6488 55.6904 49.0237C56.3155 48.3986 56.6667 47.5507 56.6667 46.6667V34.5383L51.4283 25.8083ZM43.3333 51.6667H30V35H43.3333V51.6667ZM43.3333 31.6667H30V28.3333H43.3333V31.6667Z" fill="#1C3A27"/>
<path d="M36.6667 50.0002C37.9719 49.9356 39.2065 49.3881 40.1305 48.4641C41.0546 47.54 41.6021 46.3054 41.6667 45.0002C41.6667 42.8736 39 39.9702 37.845 38.8219L36.6667 37.6436L35.4883 38.8219C34.3333 39.9702 31.6667 42.8736 31.6667 45.0002C31.7312 46.3054 32.2787 47.54 33.2028 48.4641C34.1268 49.3881 35.3614 49.9356 36.6667 50.0002V50.0002ZM36.6667 42.4669C37.3716 43.203 37.9364 44.0615 38.3333 45.0002C38.2757 45.4219 38.0816 45.8132 37.7806 46.1142C37.4796 46.4151 37.0884 46.6093 36.6667 46.6669C36.2493 46.6102 35.8614 46.4201 35.561 46.1248C35.2606 45.8295 35.0638 45.4449 35 45.0286C35.3912 44.0784 35.9565 43.2096 36.6667 42.4669V42.4669Z" fill="#1C3A27"/>
</svg>
